<svg xmlns="http://www.w3.org/2000/svg" version="1.1" viewBox="0.00 0.00 195.00 189.00" width="195.00" height="189.00">
<g stroke-width="2.00" fill="none" stroke-linecap="butt">
<path stroke="#93cee9" d="&#10;  M 22.99 0.00&#10;  Q 29.48 10.81 36.11 21.92&#10;  Q 36.86 23.18 36.76 24.95"/>
<path stroke="#9dd9e7" d="&#10;  M 36.76 24.95&#10;  Q 32.49 26.34 30.51 26.75&#10;  Q 15.24 29.94 0.00 33.21"/>
<path stroke="#8ab8e9" d="&#10;  M 71.12 0.00&#10;  L 38.22 23.65"/>
<path stroke="#86bbeb" d="&#10;  M 38.22 23.65&#10;  Q 38.32 30.46 42.37 37.10&#10;  Q 45.00 41.41 45.03 41.47&#10;  Q 64.64 76.43 75.87 97.05&#10;  Q 76.77 98.70 77.59 101.47"/>
<path stroke="#78b2f0" d="&#10;  M 77.59 101.47&#10;  Q 56.63 120.94 35.75 140.51&#10;  Q 33.64 142.49 30.67 144.32"/>
<path stroke="#8bc8ec" d="&#10;  M 30.67 144.32&#10;  L 38.94 101.69"/>
<path stroke="#8fcbea" d="&#10;  M 38.94 101.69&#10;  L 36.76 24.95"/>
<path stroke="#90a7dc" d="&#10;  M 108.72 0.00&#10;  L 112.46 41.28"/>
<path stroke="#8cace1" d="&#10;  M 112.46 41.28&#10;  L 111.76 44.44"/>
<path stroke="#8bb3e7" d="&#10;  M 111.76 44.44&#10;  Q 107.88 41.87 101.54 40.42&#10;  C 89.68 37.72 81.38 36.30 70.25 33.31&#10;  Q 61.40 30.94 44.66 27.86&#10;  Q 41.06 27.20 38.22 23.65"/>
<path stroke="#9197ce" d="&#10;  M 144.75 0.00&#10;  Q 142.62 1.77 144.14 4.80&#10;  Q 151.06 18.57 156.42 28.80&#10;  Q 156.65 29.24 156.53 29.73&#10;  L 137.44 106.78"/>
<path stroke="#8da2d8" d="&#10;  M 137.44 106.78&#10;  Q 135.46 103.61 134.55 101.20&#10;  Q 124.08 73.40 113.81 45.53&#10;  Q 113.04 43.45 112.46 41.28"/>
<path stroke="#938dc6" d="&#10;  M 189.95 0.00&#10;  Q 189.95 6.67 184.36 10.39&#10;  Q 170.93 19.35 157.59 29.15&#10;  Q 157.25 29.40 157.55 29.70&#10;  L 195.00 67.40"/>
<path stroke="#8d89c7" d="&#10;  M 195.00 88.99&#10;  L 137.50 108.92"/>
<path stroke="#8d9cd3" d="&#10;  M 137.50 108.92&#10;  L 137.44 106.78"/>
<path stroke="#88aee3" d="&#10;  M 111.76 44.44&#10;  L 79.10 101.00"/>
<path stroke="#80aae8" d="&#10;  M 79.10 101.00&#10;  L 78.17 101.59"/>
<path stroke="#79adee" d="&#10;  M 78.17 101.59&#10;  L 77.59 101.47"/>
<path stroke="#95d3ea" d="&#10;  M 38.94 101.69&#10;  L 36.73 101.54"/>
<path stroke="#9cdee7" d="&#10;  M 36.73 101.54&#10;  Q 35.06 98.93 32.60 97.12&#10;  Q 16.29 85.16 0.00 73.07"/>
<path stroke="#8595d7" d="&#10;  M 137.50 108.92&#10;  Q 137.37 108.95 137.25 108.99"/>
<path stroke="#81a3e2" d="&#10;  M 137.25 108.99&#10;  L 79.10 101.00"/>
<path stroke="#98dbe8" d="&#10;  M 36.73 101.54&#10;  L 0.00 96.97"/>
<path stroke="#8582ca" d="&#10;  M 195.00 160.03&#10;  Q 191.54 158.60 190.34 157.56&#10;  Q 183.10 151.29 166.19 135.32&#10;  Q 152.00 121.92 137.50 108.92"/>
<path stroke="#7ebaef" d="&#10;  M 30.67 144.32&#10;  Q 30.59 145.92 29.29 147.88"/>
<path stroke="#8bc8ec" d="&#10;  M 29.29 147.88&#10;  L 0.00 155.47"/>
<path stroke="#7d91db" d="&#10;  M 137.25 108.99&#10;  L 127.38 151.25"/>
<path stroke="#7a8edd" d="&#10;  M 127.38 151.25&#10;  L 127.24 152.44"/>
<path stroke="#7697e4" d="&#10;  M 127.24 152.44&#10;  L 69.95 162.52"/>
<path stroke="#72a2ed" d="&#10;  M 69.95 162.52&#10;  Q 70.23 155.57 71.72 145.47&#10;  Q 74.97 123.53 78.17 101.59"/>
<path stroke="#6f9aeb" d="&#10;  M 69.95 162.52&#10;  L 72.00 189.00"/>
<path stroke="#79adee" d="&#10;  M 19.11 189.00&#10;  Q 22.86 173.24 26.49 157.51&#10;  Q 27.27 154.14 27.64 150.71"/>
<path stroke="#78b2f0" d="&#10;  M 27.64 150.71&#10;  L 29.29 147.88"/>
<path stroke="#7e80d2" d="&#10;  M 195.00 167.76&#10;  C 192.69 167.51 190.40 167.24 188.10 166.64&#10;  C 167.90 161.34 147.72 156.04 127.38 151.25"/>
<path stroke="#86bbeb" d="&#10;  M 27.64 150.71&#10;  Q 24.89 153.03 23.39 154.65&#10;  Q 13.88 164.91 0.00 180.65"/>
<path stroke="#7773cd" d="&#10;  M 195.00 172.23&#10;  Q 192.18 173.38 191.15 173.65&#10;  Q 161.77 181.34 131.81 188.59&#10;  A 0.05 0.05 0.0 0 0 131.82 188.68&#10;  L 136.01 189.00"/>
<path stroke="#7786db" d="&#10;  M 130.27 189.00&#10;  Q 129.33 186.65 129.20 184.85&#10;  Q 128.50 175.13 127.24 152.44"/>
</g>
<path fill="#a1dbe6" d="&#10;  M 22.99 0.00&#10;  Q 29.48 10.81 36.11 21.92&#10;  Q 36.86 23.18 36.76 24.95&#10;  Q 32.49 26.34 30.51 26.75&#10;  Q 15.24 29.94 0.00 33.21&#10;  L 0.00 0.00&#10;  L 22.99 0.00&#10;  Z"/>
<path fill="#85c0ec" d="&#10;  M 71.12 0.00&#10;  L 38.22 23.65&#10;  Q 38.32 30.46 42.37 37.10&#10;  Q 45.00 41.41 45.03 41.47&#10;  Q 64.64 76.43 75.87 97.05&#10;  Q 76.77 98.70 77.59 101.47&#10;  Q 56.63 120.94 35.75 140.51&#10;  Q 33.64 142.49 30.67 144.32&#10;  L 38.94 101.69&#10;  L 36.76 24.95&#10;  Q 36.86 23.18 36.11 21.92&#10;  Q 29.48 10.81 22.99 0.00&#10;  L 71.12 0.00&#10;  Z"/>
<path fill="#8fb0e5" d="&#10;  M 108.72 0.00&#10;  L 112.46 41.28&#10;  L 111.76 44.44&#10;  Q 107.88 41.87 101.54 40.42&#10;  C 89.68 37.72 81.38 36.30 70.25 33.31&#10;  Q 61.40 30.94 44.66 27.86&#10;  Q 41.06 27.20 38.22 23.65&#10;  L 71.12 0.00&#10;  L 108.72 0.00&#10;  Z"/>
<path fill="#919dd2" d="&#10;  M 144.75 0.00&#10;  Q 142.62 1.77 144.14 4.80&#10;  Q 151.06 18.57 156.42 28.80&#10;  Q 156.65 29.24 156.53 29.73&#10;  L 137.44 106.78&#10;  Q 135.46 103.61 134.55 101.20&#10;  Q 124.08 73.40 113.81 45.53&#10;  Q 113.04 43.45 112.46 41.28&#10;  L 108.72 0.00&#10;  L 144.75 0.00&#10;  Z"/>
<path fill="#9190c9" d="&#10;  M 189.95 0.00&#10;  Q 189.95 6.67 184.36 10.39&#10;  Q 170.93 19.35 157.59 29.15&#10;  Q 157.25 29.40 157.55 29.70&#10;  L 195.00 67.40&#10;  L 195.00 88.99&#10;  L 137.50 108.92&#10;  L 137.44 106.78&#10;  L 156.53 29.73&#10;  Q 156.65 29.24 156.42 28.80&#10;  Q 151.06 18.57 144.14 4.80&#10;  Q 142.62 1.77 144.75 0.00&#10;  L 189.95 0.00&#10;  Z"/>
<path fill="#958ac2" d="&#10;  M 195.00 0.00&#10;  L 195.00 67.40&#10;  L 157.55 29.70&#10;  Q 157.25 29.40 157.59 29.15&#10;  Q 170.93 19.35 184.36 10.39&#10;  Q 189.95 6.67 189.95 0.00&#10;  L 195.00 0.00&#10;  Z"/>
<path fill="#87b5e9" d="&#10;  M 38.22 23.65&#10;  Q 41.06 27.20 44.66 27.86&#10;  Q 61.40 30.94 70.25 33.31&#10;  C 81.38 36.30 89.68 37.72 101.54 40.42&#10;  Q 107.88 41.87 111.76 44.44&#10;  L 79.10 101.00&#10;  L 78.17 101.59&#10;  L 77.59 101.47&#10;  Q 76.77 98.70 75.87 97.05&#10;  Q 64.64 76.43 45.03 41.47&#10;  Q 45.00 41.41 42.37 37.10&#10;  Q 38.32 30.46 38.22 23.65&#10;  Z"/>
<path fill="#99d6e8" d="&#10;  M 36.76 24.95&#10;  L 38.94 101.69&#10;  L 36.73 101.54&#10;  Q 35.06 98.93 32.60 97.12&#10;  Q 16.29 85.16 0.00 73.07&#10;  L 0.00 33.21&#10;  Q 15.24 29.94 30.51 26.75&#10;  Q 32.49 26.34 36.76 24.95&#10;  Z"/>
<path fill="#89a7dd" d="&#10;  M 112.46 41.28&#10;  Q 113.04 43.45 113.81 45.53&#10;  Q 124.08 73.40 134.55 101.20&#10;  Q 135.46 103.61 137.44 106.78&#10;  L 137.50 108.92&#10;  Q 137.37 108.95 137.25 108.99&#10;  L 79.10 101.00&#10;  L 111.76 44.44&#10;  L 112.46 41.28&#10;  Z"/>
<path fill="#9fe5e5" d="&#10;  M 36.73 101.54&#10;  L 0.00 96.97&#10;  L 0.00 73.07&#10;  Q 16.29 85.16 32.60 97.12&#10;  Q 35.06 98.93 36.73 101.54&#10;  Z"/>
<path fill="#8881c4" d="&#10;  M 195.00 88.99&#10;  L 195.00 160.03&#10;  Q 191.54 158.60 190.34 157.56&#10;  Q 183.10 151.29 166.19 135.32&#10;  Q 152.00 121.92 137.50 108.92&#10;  L 195.00 88.99&#10;  Z"/>
<path fill="#90d0eb" d="&#10;  M 36.73 101.54&#10;  L 38.94 101.69&#10;  L 30.67 144.32&#10;  Q 30.59 145.92 29.29 147.88&#10;  L 0.00 155.47&#10;  L 0.00 96.97&#10;  L 36.73 101.54&#10;  Z"/>
<path fill="#799fe6" d="&#10;  M 137.25 108.99&#10;  L 127.38 151.25&#10;  L 127.24 152.44&#10;  L 69.95 162.52&#10;  Q 70.23 155.57 71.72 145.47&#10;  Q 74.97 123.53 78.17 101.59&#10;  L 79.10 101.00&#10;  L 137.25 108.99&#10;  Z"/>
<path fill="#6ba4f3" d="&#10;  M 78.17 101.59&#10;  Q 74.97 123.53 71.72 145.47&#10;  Q 70.23 155.57 69.95 162.52&#10;  L 72.00 189.00&#10;  L 19.11 189.00&#10;  Q 22.86 173.24 26.49 157.51&#10;  Q 27.27 154.14 27.64 150.71&#10;  L 29.29 147.88&#10;  Q 30.59 145.92 30.67 144.32&#10;  Q 33.64 142.49 35.75 140.51&#10;  Q 56.63 120.94 77.59 101.47&#10;  L 78.17 101.59&#10;  Z"/>
<path fill="#8183d0" d="&#10;  M 137.50 108.92&#10;  Q 152.00 121.92 166.19 135.32&#10;  Q 183.10 151.29 190.34 157.56&#10;  Q 191.54 158.60 195.00 160.03&#10;  L 195.00 167.76&#10;  C 192.69 167.51 190.40 167.24 188.10 166.64&#10;  C 167.90 161.34 147.72 156.04 127.38 151.25&#10;  L 137.25 108.99&#10;  Q 137.37 108.95 137.50 108.92&#10;  Z"/>
<path fill="#85c0ec" d="&#10;  M 29.29 147.88&#10;  L 27.64 150.71&#10;  Q 24.89 153.03 23.39 154.65&#10;  Q 13.88 164.91 0.00 180.65&#10;  L 0.00 155.47&#10;  L 29.29 147.88&#10;  Z"/>
<path fill="#87b5e9" d="&#10;  M 27.64 150.71&#10;  Q 27.27 154.14 26.49 157.51&#10;  Q 22.86 173.24 19.11 189.00&#10;  L 0.00 189.00&#10;  L 0.00 180.65&#10;  Q 13.88 164.91 23.39 154.65&#10;  Q 24.89 153.03 27.64 150.71&#10;  Z"/>
<path fill="#7a7cd3" d="&#10;  M 195.00 167.76&#10;  L 195.00 172.23&#10;  Q 192.18 173.38 191.15 173.65&#10;  Q 161.77 181.34 131.81 188.59&#10;  A 0.05 0.05 0.0 0 0 131.82 188.68&#10;  L 136.01 189.00&#10;  L 130.27 189.00&#10;  Q 129.33 186.65 129.20 184.85&#10;  Q 128.50 175.13 127.24 152.44&#10;  L 127.38 151.25&#10;  C 147.72 156.04 167.90 161.34 188.10 166.64&#10;  C 190.40 167.24 192.69 167.51 195.00 167.76&#10;  Z"/>
<path fill="#738fe2" d="&#10;  M 127.24 152.44&#10;  Q 128.50 175.13 129.20 184.85&#10;  Q 129.33 186.65 130.27 189.00&#10;  L 72.00 189.00&#10;  L 69.95 162.52&#10;  L 127.24 152.44&#10;  Z"/>
<path fill="#736ac7" d="&#10;  M 195.00 172.23&#10;  L 195.00 189.00&#10;  L 136.01 189.00&#10;  L 131.82 188.68&#10;  A 0.05 0.05 0.0 0 1 131.81 188.59&#10;  Q 161.77 181.34 191.15 173.65&#10;  Q 192.18 173.38 195.00 172.23&#10;  Z"/>
</svg>